<?xml version="1.0" standalone="no"?>
<!DOCTYPE svg PUBLIC "-//W3C//DTD SVG 20010904//EN"
 "http://www.w3.org/TR/2001/REC-SVG-20010904/DTD/svg10.dtd">
<svg version="1.0" xmlns="http://www.w3.org/2000/svg"
 width="330.000000pt" height="330.000000pt" viewBox="0 0 330.000000 330.000000"
 preserveAspectRatio="xMidYMid meet">
<metadata>
Created by potrace 1.11, written by Peter Selinger 2001-2013
</metadata>
<g transform="translate(0.000000,330.000000) scale(0.100000,-0.100000)"
fill="#000000" stroke="none">
<path d="M1577 3244 c-1 -1 -34 -4 -72 -8 -75 -7 -119 -14 -147 -22 -10 -3
-30 -7 -45 -10 -53 -8 -218 -66 -303 -106 -76 -35 -217 -114 -230 -128 -3 -3
-29 -23 -58 -44 -29 -21 -74 -58 -100 -82 -26 -24 -50 -44 -54 -44 -5 0 -8 -5
-8 -11 0 -6 12 -8 28 -5 15 3 38 7 52 10 14 2 59 10 100 16 41 7 84 14 95 16
60 11 211 19 370 19 188 -1 303 -9 405 -30 14 -2 41 -7 60 -10 69 -11 207 -47
290 -76 47 -17 90 -31 95 -32 40 -9 286 -142 293 -159 2 -5 8 -8 13 -8 10 0
11 -1 114 -85 199 -164 340 -373 411 -612 22 -73 27 -109 27 -213 1 -69 -2
-140 -6 -158 -44 -195 -161 -318 -350 -367 -88 -23 -165 -29 -307 -23 -40 2
-175 32 -260 58 -52 16 -140 43 -195 60 -156 48 -212 58 -313 58 -99 0 -160
-13 -250 -53 -248 -112 -347 -391 -308 -860 5 -49 10 -93 12 -96 2 -4 6 -27 9
-50 9 -75 27 -139 39 -139 7 0 19 41 30 100 17 96 27 114 51 91 21 -18 238
-85 320 -97 17 -3 41 -7 55 -9 124 -18 237 -22 360 -11 74 7 91 9 160 21 181
31 418 129 580 239 41 28 77 53 80 56 3 3 21 18 40 34 114 91 239 234 332 376
28 44 127 234 127 243 0 1 5 16 11 32 7 17 14 37 16 45 2 8 13 47 24 85 23 79
38 147 46 220 4 28 8 53 10 57 6 9 5 266 0 298 -3 14 -7 47 -11 74 -8 62 -39
196 -60 262 -41 123 -153 353 -176 362 -5 2 -9 8 -9 13 0 15 -111 156 -177
225 -48 51 -122 116 -214 189 -94 74 -406 220 -519 241 -13 3 -53 11 -90 19
-36 7 -96 17 -135 20 -66 7 -253 14 -258 9z"/>
<path d="M607 2593 c-1 -1 -65 -4 -142 -7 -77 -3 -160 -8 -185 -11 -25 -2 -67
-7 -95 -9 -206 -19 -232 -27 -135 -40 25 -3 59 -8 75 -11 62 -10 91 -15 130
-20 22 -3 45 -8 51 -10 7 -2 -9 -45 -41 -109 -46 -94 -106 -257 -121 -326 -34
-170 -39 -210 -38 -370 0 -159 6 -217 39 -354 68 -289 200 -529 404 -735 120
-122 251 -228 251 -203 0 5 -11 45 -25 88 -28 87 -64 228 -70 271 -2 15 -4 28
-5 28 -2 0 -4 12 -15 100 -11 81 -13 212 -4 255 5 19 11 50 14 68 10 58 61
158 105 206 43 47 124 102 218 150 28 14 52 23 52 20 0 -4 6 -2 13 4 6 5 36
17 66 26 135 40 274 39 445 -1 39 -10 79 -17 89 -16 9 0 17 -3 17 -6 0 -4 8
-7 18 -8 34 -2 94 -13 104 -19 17 -11 230 -14 278 -4 25 5 56 12 70 15 14 2
52 18 85 34 155 77 198 190 126 336 -44 88 -178 224 -320 324 -99 68 -311 181
-343 181 -8 0 -18 4 -23 9 -6 6 -21 12 -35 15 -14 3 -56 15 -95 26 -76 22
-199 49 -255 56 -19 3 -42 7 -50 9 -8 2 -49 7 -90 11 -41 3 -78 8 -81 10 -10
6 -477 22 -482 17z"/>
</g>
</svg>
