<svg version="1" xmlns="http://www.w3.org/2000/svg" width="440" height="440" viewBox="0 0 330.000000 330.000000"><path d="M152 5.6c-24.3 3.1-48.3 11.9-68.5 25.2-8.2 5.4-25 19.1-24.3 19.7.2.1 6.4-.8 13.8-2.1 64.9-11.1 127.8-.3 169.3 29.3 10 7.1 25.8 22.6 31.9 31.3 9.5 13.4 16.2 27.6 19.5 41 2.5 10.5 2.5 31.4-.1 39-4 12-12.9 23-22.3 27.9-6.5 3.2-17.9 6-27.9 6.7-14.5 1.1-28.8-1.5-53.1-9.6-24.8-8.2-37.1-10.1-49.6-7.6-9.1 1.8-20.4 6.9-26.3 12-13.2 11.3-19.7 31.4-19.7 60.1.1 18.4 3.9 47.5 6.3 47.5.5 0 1.2-2.1 1.5-4.8.4-2.6 1.3-7 1.9-9.7 1.5-5.9 1.8-5.9 12.6-2 18.6 6.8 31.6 8.9 53.5 8.9 14.7-.1 19.9-.5 28.5-2.3 22.7-4.9 44.2-14 61.5-26.2 11.5-8.1 29.2-25.9 37.2-37.2 22.8-32.4 33.2-73.6 27.7-110.6-5.6-38.1-20.2-67.1-46.8-92.9C256.7 28 232.3 15 201 7.9c-7.4-1.6-13.5-2.2-27.5-2.4-9.9-.2-19.6-.1-21.5.1z"/><path d="M42 71.1c-15.8.9-35.9 3-38.5 3.9-1.4.5.3 1.1 5.5 1.9 16.9 2.7 25.1 4.4 24.8 5-.2.3-2.4 4.9-5 10.1-16.3 33-20.5 67.2-12.7 103.7 6 27.8 19.8 53.7 39.9 74.7 9.4 9.8 24.6 22.3 25.7 21.2.4-.3-.6-4.5-2-9.3-7.1-23.5-9.7-37.8-9.7-53.1 0-27.3 8.8-41.6 33.1-53.5 6.3-3.1 14.5-6.3 18.2-7.2 11.2-2.5 25.9-2 42.7 1.5 26.5 5.6 31 6.2 40.5 5.7 26.5-1.5 42.4-13.5 40.2-30.2-1.8-13-16.6-29.3-41.4-45.8-34-22.6-91.8-32.9-161.3-28.6z"/></svg>